PathFileType	4	(X/Y/Z)	pose2sim_0-707.trc
DataRate	CameraRate	NumFrames	NumMarkers	Units	OrigDataRate	OrigDataStartFrame	OrigNumFrames
50	50	5	22	m	50	442	708
Frame#	Time	Hip			RHip			RKnee			RAnkle			RBigToe			RSmallToe			RHeel			LHip			LKnee			LAnkle			LBigToe			LSmallToe			LHeel			Neck			Head			Nose			RShoulder			RElbow			RWrist			LShoulder			LElbow			LWrist			
		X1	Y1	Z1	X2	Y2	Z2	X3	Y3	Z3	X4	Y4	Z4	X5	Y5	Z5	X6	Y6	Z6	X7	Y7	Z7	X8	Y8	Z8	X9	Y9	Z9	X10	Y10	Z10	X11	Y11	Z11	X12	Y12	Z12	X13	Y13	Z13	X14	Y14	Z14	X15	Y15	Z15	X16	Y16	Z16	X17	Y17	Z17	X18	Y18	Z18	X19	Y19	Z19	X20	Y20	Z20	X21	Y21	Z21	X22	Y22	Z22	
442	8.84	0.11211754360639752	0.916141014565189	-0.11351553821915285	0.006766074364935189	0.9022597710710762	-0.11456641505599154	-0.022644708427811577	0.4992973419888108	-0.13568401671516508	-0.016223703604068128	0.09608394725713164	-0.14443548710478477	-0.028137438593475637	0.042951030138359374	0.03774930925563905	-0.07660031857448357	0.044243371326666926	-0.028295975403447526	-0.0028152413139729566	0.051010773857410735	-0.18493425749204934	0.22466187185946995	0.9017131376941327	-0.11959029862971089	0.2455477712677643	0.49894918204205835	-0.14164007069423584	0.2608168896461114	0.0965038196327846	-0.1601229068252976	0.2770926640563609	0.04316386041170414	0.037806688428771364	0.32382200763390223	0.046553964442993506	-0.020228995360323694	0.2539627926693237	0.04814622163966555	-0.20024560861523635	0.12052927534072633	1.5243932085211964	-0.09774360970719366	0.1150925376194672	1.7547873321314318	-0.062383002626045375	0.09914895512488602	1.6301197586274006	0.025543826159156725	-0.05402514525008952	1.4270657495074035	-0.10702794158119386	-0.13222826417929612	1.1696314167173631	-0.048459026449560516	-0.10577988033612476	1.1324599604486052	0.20802321861059558	0.3006266055992378	1.4235707624859577	-0.11152768201577479	0.3608031322894128	1.1849702556755084	-0.060508490088756924	0.32914101920711303	1.1385687966705231	0.19743052040828935
443	8.86	0.11392752653575382	0.9147604490391303	-0.10910967734390793	0.00822665045857779	0.9009153937427531	-0.11608957810707247	-0.022905033394057573	0.4961517279204754	-0.13981187603807604	-0.016904365388502606	0.09803339644480387	-0.15091453336367236	-0.026332739296589747	0.044169671920578066	0.03077771453801296	-0.07161637345780736	0.04254399539175958	-0.02760856532442361	-0.004963278235661493	0.051900566691427195	-0.19069463961391542	0.2263783785148061	0.9002821047553817	-0.11267560940856447	0.24443933124512304	0.49717402845803343	-0.14221720280630226	0.26095122355220873	0.09555907147867072	-0.16211842526179887	0.277125585684579	0.04371570295126634	0.03390376350997832	0.32526993492507017	0.04564946966317265	-0.024489631606502124	0.2523434443155381	0.0500463591995094	-0.20000919907987824	0.11927826432824791	1.5240656469075606	-0.09821716144839854	0.11766202538390771	1.7531314587814695	-0.06502526910357426	0.09893615621679287	1.6307159307437327	0.027900590160169044	-0.0554059837251752	1.4252515246750348	-0.10170956184268326	-0.1265154327475753	1.1619406213110501	-0.04256598400932075	-0.08893951544571911	1.154615603963496	0.22600263959021472	0.29950185113095945	1.4238135479503033	-0.11103560821928829	0.35552373234088386	1.1829100950628657	-0.0582114243856217	0.31584123722493956	1.1580917357361284	0.21823038678674775
444	8.88	0.11402019966037191	0.9193677855152179	-0.1077758305393572	0.006328757799946403	0.9048841630030876	-0.11007644797327336	-0.023788875843055727	0.5010655589368063	-0.13501439550406638	-0.01656971239358049	0.09372161598283008	-0.14948543806857786	-0.02999083543987019	0.04860088260024294	0.04809955015423451	-0.0684253066846421	0.048574339303918586	-0.004044118174382694	-0.003488535371003596	0.04484152482595032	-0.18967861139827374	0.22403120297808762	0.902974457865846	-0.10687008130688865	0.243019875127426	0.498678191838146	-0.1370483811462847	0.25984549193575396	0.0954389441388546	-0.16455675624471278	0.2723999210463518	0.045520601566334695	0.038590556671691416	0.31213058862694526	0.04140800813866205	-0.02234691792039426	0.24958089428824087	0.04913907935408232	-0.2027540978300391	0.11970404209628244	1.5266782289039003	-0.09717157329947751	0.1146283568516745	1.7540984709696947	-0.06250311529810701	0.10247469032538194	1.6301516867920112	0.041747694547681444	-0.060004024594961194	1.4224134515039535	-0.10520438695683854	-0.12883396066462818	1.155737018293879	-0.04144164715904274	-0.09160411517963399	1.168660183526255	0.2269403243382103	0.3001722575866114	1.4221778034995882	-0.11310183426883023	0.3549682707745153	1.1707712504374501	-0.05162077558293355	0.30136723014525807	1.1650432185209139	0.22583924117115992
445	8.9	0.11428250738539639	0.914142407054713	-0.10558121665434973	0.007112825626803395	0.8990227594706659	-0.10743306232467871	-0.022379302043875542	0.4978300365169241	-0.13667831462004695	-0.019136781999229045	0.09978716565709911	-0.1533213954284483	-0.02552312987805372	0.04461102719019087	0.03745414142846671	-0.07128708298086266	0.04289666280275727	-0.023183525640858023	-0.007391482618963817	0.05335248833182726	-0.19494485719346116	0.22827011648171716	0.8982756829376326	-0.10689272797990645	0.24325384673496037	0.4974530911697268	-0.1393670730401076	0.26040519993539324	0.09846635045219866	-0.15977834295883428	0.27779975937137025	0.046432488840991895	0.03474195342059197	0.3235943768014753	0.048479525684596486	-0.020452885871118386	0.25025696196009967	0.04985268675315101	-0.2003177180874628	0.11971170477483958	1.5245208021000805	-0.09782671089664398	0.1140937633710657	1.7538795608176712	-0.06191193591894587	0.09389411461575589	1.6303976653267933	0.01184040708277097	-0.054086902541523305	1.426617216472704	-0.10739109620010806	-0.12339398302174244	1.161575391480691	-0.03813060748339353	-0.07677976684598518	1.1955470508720585	0.2514967731361005	0.30003262466218616	1.4241870943239805	-0.1135193133846356	0.35749222927941915	1.1814553247281192	-0.054771214062625806	0.2937176168893098	1.1899934805968102	0.20000424130237623
446	8.92	0.11462453860469339	0.9141432143798998	-0.11174976883552017	0.006379343259899674	0.9004185589890302	-0.11284085057933221	-0.023259234057636496	0.4974335083083437	-0.136457905314466	-0.017375785521250013	0.0954880062308023	-0.14923617715255294	-0.024019502577018133	0.04137664495578403	0.034630092229185915	-0.07062525445615085	0.04300215187726615	-0.029095064967567263	-0.0026097130746339037	0.05085197198601194	-0.19243542603896763	0.22704625963327327	0.8994496142215466	-0.10977328616196538	0.24493705603601718	0.49671795587676665	-0.13774303768997573	0.26290141040041826	0.09736887062062036	-0.16234571484233584	0.2752911025843765	0.042862419734458465	0.030700550581560203	0.3239891009226228	0.046040558594235816	-0.024426282129436247	0.2515476198842126	0.051957411639893314	-0.20016551963799953	0.12005824186143647	1.525648217324966	-0.09906377876825201	0.11450700096051099	1.7535323623923562	-0.06287852812342618	0.09597367493398533	1.6329929880681109	0.019934370939160652	-0.05184840360476553	1.4279720716224693	-0.10761723077003107	-0.12503442157017972	1.1661492290431266	-0.04081270572176893	-0.07722983980491936	1.2202822574174719	0.24820102941735417	0.3004349806940419	1.42548830199193	-0.11198225902547827	0.35881398979477863	1.183590021684067	-0.05353803152264661	0.2864563454686514	1.2113581574549144	0.2019712266590915
